<svg xmlns="http://www.w3.org/2000/svg" width="88" height="88.325" viewBox="0 0 88 88.325"><defs><style>.a{fill:none;stroke:#b9d7f2;stroke-linecap:round;stroke-linejoin:round;stroke-width:3px;}</style></defs><path class="a" d="M206.662,253.254V263.9h-85V253.254m8.684-9.47h-1.219a2.18,2.18,0,0,0-1.812.971l-5.178,7.814a2.172,2.172,0,0,0,1.812,3.371h36.563m7.305,0H204.38a2.173,2.173,0,0,0,1.812-3.371l-5.182-7.814a2.169,2.169,0,0,0-1.812-.971h-1.21m-37.475-16.447H144.182a2.441,2.441,0,0,0-2.425,2.724l2.135,18.338a2.322,2.322,0,0,0,2.3,2.051h35.937a2.314,2.314,0,0,0,2.3-2.051l2.139-18.338a2.443,2.443,0,0,0-2.425-2.724H167.817m-3.653,8.293a3.5,3.5,0,1,0,4.035,3.459A3.78,3.78,0,0,0,164.164,235.63Zm-21.676.715c-2.471-.332-9.638-1.114-11.622.643-2.408,2.135-2.9,8.31,4.523,9.062a67.61,67.61,0,0,0,8.289.483m11.933-32.99a12.43,12.43,0,0,1-6.511,4.548c-2.345.614-4.161.164-6.666,1.454a10.64,10.64,0,0,0-3.552,3.014l-8.864,15.489m20.713-20.2a18.387,18.387,0,0,0,13.433,6.036m20.486,22.655a67.646,67.646,0,0,0,8.289-.483c7.419-.752,6.927-6.927,4.518-9.062-1.98-1.757-9.146-.975-11.618-.643m12.471,1.7-8.869-15.489a10.662,10.662,0,0,0-3.547-3.014c-2.509-1.29-4.321-.841-6.666-1.454a12.421,12.421,0,0,1-6.494-4.527m-8.57,10.315a18.378,18.378,0,0,0,13.429-6.036m-29.435-21.36h-1.58a2.079,2.079,0,0,0-2.081,2.076V199.7a3.66,3.66,0,0,0,3.661,3.657h0m31.759,0h0a3.66,3.66,0,0,0,3.661-3.657v-1.139a2.079,2.079,0,0,0-2.081-2.076h-1.58m-30.145-3.552a24.662,24.662,0,0,1,8.305-.16c3.947.614,4.741,1.769,8.066,2.5,1.021.223,10.336,2.144,14.593-3.148,1.774-2.2,2.976-6.027,1.29-9.272a8.542,8.542,0,0,0-7.658-4.275c-2.585.076-2.749,1.463-5.968,2.018-3.707.639-4.628-1-8.389-.727-.862.063-5.325.391-8.226,3.627-2.509,2.812-2.749,6.582-2.984,10.323-.088,1.454-.05,2.791,0,4.518a36.947,36.947,0,0,0,.488,6.691c1.274,5.283,5.994,8.326,7.095,9.033a15.158,15.158,0,0,0,7.822,2.74,15.529,15.529,0,0,0,7.78-2.74c1.1-.706,5.821-3.749,7.095-9.033a37.07,37.07,0,0,0,.483-6.691c.055-1.727.092-3.064,0-4.518m-21.335,7.894v1.643m12.021-1.643v1.643" transform="translate(-120.162 -177.071)"/></svg>