<svg xmlns="http://www.w3.org/2000/svg" width="88" height="80.649" viewBox="0 0 88 80.649"><defs><style>.a{fill:none;stroke:#b9d7f2;stroke-linecap:round;stroke-linejoin:round;stroke-width:3px;}</style></defs><path class="a" d="M301.544,221.709c-2.938,18.405-18.389,32.444-37.009,32.444a37,37,0,0,1-29.388-14.7m66.4-27.594-5.493,9.848h10.987ZM293.928,191.2a36.989,36.989,0,0,0-29.392-14.7c-18.616,0-34.066,14.034-37,32.44m0,9.852,5.493-9.852H222.038Zm60.752,2.951,1.673,2.921-3.85,6.683h-3.623a24.335,24.335,0,0,1-6.259,4.6l-.87,3.257-7.461,1.992-2.56-2.556h-.227v-11.1a13.24,13.24,0,0,0,0-26.48v-11.1a24.571,24.571,0,0,1,7.448,1.156l2.908-1.673,6.683,3.867v3.611a24.1,24.1,0,0,1,4.6,6.258l3.257.883,2,7.444-2.56,2.56v.244A24.544,24.544,0,0,1,288.284,221.747Zm-23.176-20.679v26.48m-6.507-9.806a4.658,4.658,0,0,0-6.448,4.3m3.375-4.472a5.136,5.136,0,0,0-1.042-4.157m2.749-23.2a4.683,4.683,0,0,0-3.417,7.9,7.835,7.835,0,0,0-11.353,10.079,4.627,4.627,0,0,0-.962,9.02,7.8,7.8,0,0,0,2.118,14.736,5.683,5.683,0,0,0-.761,2.812,5.734,5.734,0,0,0,9.175,4.607,5.749,5.749,0,0,0,9.894-3.989V194.905A4.694,4.694,0,0,0,257.235,190.21Zm-3.009,16.367a3.53,3.53,0,0,0,.286-1.4,3.6,3.6,0,0,0-3.6-3.6m3.6,2.505a3.591,3.591,0,0,0,2.98-1.589m-13.614,9.638a3.593,3.593,0,0,0,1.744-3.085,3.665,3.665,0,0,0-.177-1.122m-.155,2.909a3.59,3.59,0,0,0,.656,2.068m2.076,19.418a3.592,3.592,0,0,0-.458-5.7m1.652,2.215a3.592,3.592,0,0,0,5.073-.53m-2.257,11.054a5.7,5.7,0,0,0,2.295-4.577m-9.491-18.292a7.761,7.761,0,0,0-3.262.715m2.047,14.745a8.27,8.27,0,0,0,1.215.092" transform="translate(-220.538 -175.004)"/></svg>