<svg xmlns="http://www.w3.org/2000/svg" width="88" height="85.278" viewBox="0 0 88 85.278"><defs><style>.a{fill:none;stroke:#b9d7f2;stroke-linecap:round;stroke-linejoin:round;stroke-width:3px;}</style></defs><path class="a" d="M18.678,254.891h85m-18.133,0V209.9l-12.01-5.924m.053,50.918v-59.1l-19.456-9.651m.106,68.7V172.613H25.4v82.225m14.264-73.624H25.4M39.659,189.8H25.4m14.264,8.589H25.4m14.264,8.589H25.4m14.264,8.585H25.4m14.264,8.589H25.4m14.264,8.585H25.4m14.264,8.589H25.4m14.264,8.589H25.4m39.937-51.524H54.237m11.095,8.589H54.237m11.095,8.585H54.237m11.095,8.589H54.237m11.095,8.585H54.237m11.095,8.589H54.237m11.095,8.589H54.237m25.644-34.351H73.534m6.347,8.589H73.534m6.347,8.585H73.534m6.347,8.589H73.534m6.347,8.589H73.534m15.733-10.676c0,3.78,2.624,6.847,5.863,6.847s5.863-3.068,5.863-6.847-2.624-6.847-5.863-6.847S89.267,235.452,89.267,239.235ZM95.13,242.9v11.99" transform="translate(-17.178 -171.113)"/></svg>